# 3ds Max Wavefront OBJ Exporter v0.99 - (c)2007 guruware
# File Created: 14.03.2023 14:07:45

mtllib forest_terrain.mtl

#
# object Cylinder001
#

v  31.4147 -0.7282 -21.1576
v  37.8927 -0.7282 -26.6789
v  44.3707 -0.7282 -21.1576
v  44.3706 -0.7282 4.9792
v  37.8927 -0.7282 8.9442
v  31.4147 -0.7282 4.9792
v  44.3706 31.3222 4.9792
v  37.8927 31.3222 8.9442
v  44.3707 31.3222 -21.1576
v  37.8927 31.3222 -25.3449
v  31.4147 31.3222 -21.1576
v  31.4147 31.3222 4.9792
v  37.8927 32.5275 7.9259
v  43.9859 32.5275 4.2030
v  43.9859 32.5275 -20.3814
v  37.8927 32.5275 -24.3266
v  31.7994 32.5275 -20.3814
v  31.7994 32.5275 4.2030
# 18 vertices

vn 0.0000 -1.0000 -0.0000
vn 0.2762 0.0000 0.9611
vn 1.0000 0.0000 0.0000
vn 0.3441 0.0335 -0.9383
vn 0.3711 0.0507 -0.9272
vn 0.3188 0.0176 -0.9477
vn 0.2905 0.0000 -0.9569
vn -0.3442 0.0178 -0.9387
vn -0.3716 0.0000 -0.9284
vn -0.3188 0.0341 -0.9472
vn -0.2901 0.0522 -0.9556
vn -1.0000 0.0000 -0.0000
vn -0.2762 0.0000 0.9611
vn 0.0000 1.0000 -0.0000
vn 0.0000 1.0000 0.0000
vn -0.0000 1.0000 0.0000
vn -0.0000 1.0000 -0.0000
vn 0.1896 0.7273 0.6596
vn 0.1886 0.7296 0.6574
vn 0.7459 0.6661 0.0000
vn 0.1991 0.7280 -0.6560
vn 0.1987 0.7303 -0.6536
vn -0.1984 0.7302 -0.6537
vn -0.1994 0.7280 -0.6560
vn -0.7459 0.6661 -0.0000
vn -0.1889 0.7295 0.6573
vn -0.1893 0.7272 0.6598
# 27 vertex normals

o Cylinder001
g Cylinder001
usemtl wire_115115115
s 1
f 1//1 2//1 3//1 
f 3//1 4//1 5//1 
f 1//1 3//1 5//1 
f 6//1 1//1 5//1 
s 8
f 5//2 4//2 7//2 
f 7//2 8//2 5//2 
s 64
f 4//3 3//3 9//3 
f 9//3 7//3 4//3 
s 32
f 3//4 2//5 10//6 
f 10//6 9//7 3//4 
s 16
f 2//8 1//9 11//10 
f 11//10 10//11 2//8 
s 8
f 1//12 6//12 12//12 
f 12//12 11//12 1//12 
s 32
f 6//13 5//13 8//13 
f 8//13 12//13 6//13 
s 1
f 13//14 14//15 15//15 
f 15//15 16//15 17//16 
f 13//14 15//15 17//16 
f 18//17 13//14 17//16 
s off
f 8//18 7//18 14//18 
f 14//19 13//19 8//19 
f 7//20 9//20 15//20 
f 15//20 14//20 7//20 
f 9//21 10//21 16//21 
f 16//22 15//22 9//22 
f 10//23 11//23 17//23 
f 17//24 16//24 10//24 
f 11//25 12//25 18//25 
f 18//25 17//25 11//25 
f 12//26 8//26 13//26 
f 13//27 18//27 12//27 
# 32 faces

#
# object Box002
#

v  9.4043 -0.5670 -14.6532
v  21.7680 -0.5670 -14.6532
v  21.7680 -0.5670 -1.7378
v  9.4043 -0.5670 -1.7378
v  10.2857 29.0762 -13.7649
v  10.2857 29.0762 -2.6261
v  20.8866 29.0762 -2.6261
v  20.8866 29.0762 -13.7649
v  9.4043 27.8962 -1.7378
v  9.4043 27.8962 -14.6532
v  21.7680 27.8962 -1.7378
v  21.7680 27.8962 -14.6532
# 12 vertices

vn 0.0000 -1.0000 -0.0000
vn 0.0000 1.0000 -0.0000
vn -1.0000 0.0000 -0.0000
vn -0.0000 0.0000 1.0000
vn 1.0000 0.0000 0.0000
vn 0.0000 0.0000 -1.0000
vn -0.4972 0.8677 -0.0000
vn -0.0000 0.8693 0.4942
vn 0.4972 0.8677 0.0000
vn 0.0000 0.8693 -0.4942
# 10 vertex normals

o Box002
g Box002
usemtl wire_115115115
s 1
f 19//28 20//28 21//28 
f 21//28 22//28 19//28 
f 23//29 24//29 25//29 
f 25//29 26//29 23//29 
s 2
f 19//30 22//30 27//30 
f 27//30 28//30 19//30 
s 4
f 22//31 21//31 29//31 
f 29//31 27//31 22//31 
s 2
f 21//32 20//32 30//32 
f 30//32 29//32 21//32 
s 4
f 20//33 19//33 28//33 
f 28//33 30//33 20//33 
s 8
f 28//34 27//34 24//34 
f 24//34 23//34 28//34 
s 16
f 27//35 29//35 25//35 
f 25//35 24//35 27//35 
s 8
f 29//36 30//36 26//36 
f 26//36 25//36 29//36 
s 16
f 30//37 28//37 23//37 
f 23//37 26//37 30//37 
# 20 faces

#
# object Box003
#

v  -9.7272 -0.5670 -22.6812
v  2.6365 -0.5670 -22.6812
v  2.6365 -0.5670 6.2902
v  -9.7272 -0.5670 6.2902
v  -8.9824 30.2330 -21.0106
v  -8.9824 30.2330 4.6196
v  1.8918 30.2330 4.6196
v  1.8918 30.2330 -21.0106
v  -9.7272 29.4511 6.2902
v  -9.7272 29.4511 -22.6812
v  2.6365 29.4511 6.2902
v  2.6365 29.4511 -22.6812
# 12 vertices

vn 0.0000 -1.0000 -0.0000
vn 0.0000 1.0000 -0.0000
vn -1.0000 0.0000 -0.0000
vn -0.0000 0.0000 1.0000
vn 1.0000 0.0000 0.0000
vn 0.0000 0.0000 -1.0000
vn -0.3920 0.9200 -0.0000
vn -0.0000 0.9200 0.3920
vn 0.3920 0.9200 0.0000
vn 0.0000 0.9200 -0.3920
# 10 vertex normals

o Box003
g Box003
usemtl wire_115115115
s 1
f 31//38 32//38 33//38 
f 33//38 34//38 31//38 
f 35//39 36//39 37//39 
f 37//39 38//39 35//39 
s 2
f 31//40 34//40 39//40 
f 39//40 40//40 31//40 
s 4
f 34//41 33//41 41//41 
f 41//41 39//41 34//41 
s 2
f 33//42 32//42 42//42 
f 42//42 41//42 33//42 
s 4
f 32//43 31//43 40//43 
f 40//43 42//43 32//43 
s 8
f 40//44 39//44 36//44 
f 36//44 35//44 40//44 
s 16
f 39//45 41//45 37//45 
f 37//45 36//45 39//45 
s 8
f 41//46 42//46 38//46 
f 38//46 37//46 41//46 
s 16
f 42//47 40//47 35//47 
f 35//47 38//47 42//47 
# 20 faces

#
# object Box004
#

v  -37.1680 -0.5670 -24.5650
v  -37.1680 -0.5670 8.1741
v  -44.6499 -0.5670 8.1741
v  -44.6499 -0.5670 -24.5650
v  -37.2787 30.6377 6.6891
v  -37.2787 30.6377 -23.0800
v  -44.5392 30.6377 -23.0800
v  -44.5392 30.6377 6.6891
v  -47.0908 -0.5670 -22.6812
v  -47.0908 -0.5670 6.2902
v  -47.0908 29.4511 6.2902
v  -47.0908 29.4511 -22.6812
v  -37.1680 29.4511 8.1741
v  -44.6499 29.4511 8.1741
v  -34.7271 -0.5670 6.2902
v  -34.7271 -0.5670 -22.6812
v  -34.7271 29.4511 -22.6812
v  -34.7271 29.4511 6.2902
v  -44.6499 29.4511 -24.5650
v  -37.1680 29.4511 -24.5650
v  -35.3891 30.6377 5.2307
v  -35.3891 30.6377 -21.6217
v  -46.4288 30.6377 -21.6217
v  -46.4288 30.6377 5.2307
# 24 vertices

vn 0.0000 -1.0000 -0.0000
vn 0.0000 1.0000 -0.0000
vn -1.0000 0.0000 -0.0000
vn -0.0000 0.0000 1.0000
vn 1.0000 0.0000 0.0000
vn 0.0000 0.0000 -1.0000
vn 0.3253 0.0000 0.9456
vn -0.3253 0.0000 0.9456
vn -0.3253 0.0000 -0.9456
vn 0.3253 0.0000 -0.9456
vn -0.4148 0.8604 -0.2959
vn -0.4148 0.8604 0.2959
vn -0.0961 0.8125 0.5750
vn 0.0961 0.8125 0.5750
vn 0.4148 0.8604 0.2959
vn 0.4148 0.8604 -0.2959
vn 0.0961 0.8125 -0.5750
vn -0.0961 0.8125 -0.5750
# 18 vertex normals

o Box004
g Box004
usemtl wire_115115115
s 2
f 43//48 44//48 45//48 
f 45//48 46//48 43//48 
s 4
f 47//49 48//49 49//49 
f 49//49 50//49 47//49 
s 8
f 51//50 52//50 53//50 
f 53//50 54//50 51//50 
s 32
f 44//51 55//51 56//51 
f 56//51 45//51 44//51 
f 57//52 58//52 59//52 
f 59//52 60//52 57//52 
s 64
f 46//53 61//53 62//53 
f 62//53 43//53 46//53 
s 2
f 58//48 57//48 44//48 
f 44//48 43//48 58//48 
f 52//48 51//48 46//48 
f 46//48 45//48 52//48 
s 4
f 63//49 64//49 48//49 
f 48//49 47//49 63//49 
f 65//49 66//49 50//49 
f 50//49 49//49 65//49 
s 16
f 57//54 60//54 55//54 
f 55//54 44//54 57//54 
f 53//55 52//55 45//55 
f 45//55 56//55 53//55 
s 128
f 51//56 54//56 61//56 
f 61//56 46//56 51//56 
f 59//57 58//57 43//57 
f 43//57 62//57 59//57 
s 1
f 54//58 53//59 66//59 
f 66//59 65//58 54//58 
f 53//59 56//60 50//60 
f 50//60 66//59 53//59 
f 56//60 55//61 47//61 
f 47//61 50//60 56//60 
f 55//61 60//62 63//62 
f 63//62 47//61 55//61 
f 60//62 59//63 64//63 
f 64//63 63//62 60//62 
f 59//63 62//64 48//64 
f 48//64 64//63 59//63 
f 62//64 61//65 49//65 
f 49//65 48//64 62//64 
f 61//65 54//58 65//58 
f 65//58 49//65 61//65 
# 44 faces

#
# object Box005
#

v  -24.1543 -0.5670 -25.1116
v  -24.1520 -0.5670 8.7492
v  -27.7981 -0.5670 6.2902
v  -27.7981 -0.5670 -22.6812
v  -27.1361 31.2862 4.8583
v  -24.0612 31.2862 6.8864
v  -24.0579 31.2862 -23.6266
v  -27.1361 31.2862 -21.5735
v  -27.7981 29.4511 5.9696
v  -27.7981 29.4511 -22.6812
v  -24.1566 29.4511 8.3714
v  -15.4344 -0.5670 6.2902
v  -15.4344 -0.5670 -22.6812
v  -15.4344 29.4511 -22.6812
v  -15.4344 29.4511 5.9696
v  -19.0782 -0.5670 -25.1116
v  -19.0782 29.4511 -25.1116
v  -19.0805 -0.5670 8.7492
v  -16.0964 31.2862 4.8583
v  -16.0964 31.2862 -21.5735
v  -19.1746 31.2862 -23.6266
v  -19.1712 31.2862 6.8864
v  -19.0759 29.4511 8.3714
v  -24.1543 29.4511 -25.1116
# 24 vertices

vn 0.0000 -1.0000 -0.0000
vn 0.0000 1.0000 0.0000
vn 0.0000 1.0000 -0.0000
vn -1.0000 0.0000 -0.0000
vn -0.2868 0.0116 0.9579
vn -0.2821 0.0132 0.9593
vn -0.2832 0.0128 0.9590
vn -0.2879 0.0112 0.9576
vn 1.0000 0.0000 0.0000
vn 0.2850 0.0000 -0.9585
vn -0.0000 1.0000 0.0000
vn 0.2868 0.0128 0.9579
vn 0.2821 0.0113 0.9593
vn 0.2832 0.0116 0.9590
vn 0.2879 0.0131 0.9576
vn -0.2850 0.0000 -0.9585
vn -0.0000 0.0138 0.9999
vn 0.0000 0.0000 -1.0000
vn -0.5368 0.7426 -0.4004
vn -0.5358 0.7430 0.4010
vn -0.1060 0.6682 0.7364
vn 0.1060 0.6682 0.7364
vn 0.5358 0.7430 0.4010
vn 0.5368 0.7426 -0.4004
vn 0.1071 0.6682 -0.7362
vn -0.1071 0.6682 -0.7362
# 26 vertex normals

o Box005
g Box005
usemtl wire_115115115
s 1
f 67//66 68//66 69//66 
f 69//66 70//66 67//66 
s 4
f 71//67 72//68 73//67 
f 73//67 74//67 71//67 
s 2
f 70//69 69//69 75//69 
f 75//69 76//69 70//69 
s 4
f 68//70 77//71 75//72 
f 75//72 69//73 68//70 
s 2
f 78//74 79//74 80//74 
f 80//74 81//74 78//74 
s 4
f 82//75 83//75 80//75 
f 80//75 79//75 82//75 
s 1
f 79//66 78//66 84//66 
f 84//66 82//66 79//66 
s 4
f 85//76 86//76 87//76 
f 87//76 88//68 85//76 
f 78//77 81//78 89//79 
f 89//79 84//80 78//77 
f 70//81 76//81 90//81 
f 90//81 67//81 70//81 
s 1
f 68//66 67//66 82//66 
f 82//66 84//66 68//66 
s 4
f 73//67 72//68 88//68 
f 88//68 87//76 73//67 
s 8
f 77//82 68//82 84//82 
f 84//82 89//82 77//82 
f 83//83 82//83 67//83 
f 67//83 90//83 83//83 
s 1
f 76//84 75//85 71//85 
f 71//85 74//84 76//84 
f 75//85 77//86 72//86 
f 72//86 71//85 75//85 
f 77//86 89//87 88//87 
f 88//87 72//86 77//86 
f 89//87 81//88 85//88 
f 85//88 88//87 89//87 
f 81//88 80//89 86//89 
f 86//89 85//88 81//88 
f 80//89 83//90 87//90 
f 87//90 86//89 80//89 
f 83//90 90//91 73//91 
f 73//91 87//90 83//90 
f 90//91 76//84 74//84 
f 74//84 73//91 90//91 
# 44 faces

