# 3ds Max Wavefront OBJ Exporter v0.99 - (c)2007 guruware
# File Created: 17.12.2022 09:57:19

mtllib obj-officeglass.mtl

#
# object office_wall02_glass
#

v  285.2944 13.4965 -13.5635
v  285.2944 4.7420 -13.5559
v  290.2426 4.7411 -13.5706
v  290.2426 13.4965 -13.5706
v  290.6879 13.4965 -13.5635
v  290.6879 4.7420 -13.5559
v  295.6361 4.7411 -13.5706
v  295.6361 13.4965 -13.5706
v  296.0814 13.4965 -13.5635
v  296.0814 4.7420 -13.5560
v  301.0296 4.7411 -13.5706
v  301.0296 13.4965 -13.5706
v  301.4749 13.4965 -13.5635
v  301.4749 4.7420 -13.5559
v  306.4232 4.7411 -13.5706
v  306.4232 13.4965 -13.5706
v  306.8685 13.4965 -13.5635
v  306.8685 4.7420 -13.5559
v  311.8167 4.7411 -13.5706
v  311.8167 13.4965 -13.5706
v  274.5062 13.4965 -13.5635
v  274.5062 4.7420 -13.5559
v  279.4544 4.7411 -13.5706
v  279.4544 13.4965 -13.5706
v  285.2944 13.4965 -13.7098
v  290.2426 13.4965 -13.7170
v  290.2426 4.7411 -13.7170
v  285.2944 4.7420 -13.7023
v  290.6879 13.4965 -13.7098
v  295.6361 13.4965 -13.7170
v  295.6361 4.7411 -13.7170
v  290.6879 4.7420 -13.7023
v  296.0814 13.4965 -13.7098
v  301.0296 13.4965 -13.7170
v  301.0296 4.7411 -13.7170
v  296.0814 4.7420 -13.7023
v  301.4749 13.4965 -13.7098
v  306.4232 13.4965 -13.7170
v  306.4232 4.7411 -13.7170
v  301.4749 4.7420 -13.7023
v  306.8685 13.4965 -13.7098
v  311.8167 13.4965 -13.7170
v  311.8167 4.7411 -13.7170
v  306.8685 4.7420 -13.7023
v  274.5062 13.4965 -13.7098
v  279.4544 13.4965 -13.7170
v  279.4544 4.7411 -13.7170
v  274.5062 4.7420 -13.7023
v  279.9001 13.4965 -13.5635
v  279.9001 4.7420 -13.5559
v  284.8484 4.7411 -13.5706
v  284.8484 13.4965 -13.5706
v  279.9001 13.4965 -13.7098
v  284.8484 13.4965 -13.7170
v  284.8484 4.7411 -13.7170
v  279.9001 4.7420 -13.7023
# 56 vertices

vn 0.1130 0.0289 0.9932
vn 0.2273 0.0283 0.9734
vn 0.2274 -0.0000 0.9738
vn 0.1130 -0.0000 0.9936
vn 0.1128 0.0289 0.9932
vn 0.2274 0.0283 0.9734
vn 0.1128 -0.0001 0.9936
vn 0.1129 0.0289 0.9932
vn 0.2275 -0.0000 0.9738
vn 0.2274 -0.0001 0.9738
vn 0.1129 -0.0001 0.9936
vn -0.1130 -0.0289 -0.9932
vn -0.1130 0.0000 -0.9936
vn -0.2274 0.0000 -0.9738
vn -0.2273 -0.0283 -0.9734
vn -0.1128 -0.0289 -0.9932
vn -0.1128 0.0001 -0.9936
vn -0.2274 -0.0283 -0.9734
vn -0.1129 -0.0289 -0.9932
vn -0.2275 0.0000 -0.9738
vn -0.1129 0.0001 -0.9936
vn -0.2274 0.0001 -0.9738
# 22 vertex normals

vt 0.0098 0.9889 0.0000
vt 0.0098 0.0082 0.0000
vt 0.9905 0.0082 0.0000
vt 0.9905 0.9889 0.0000
# 4 texture coords

o office_wall02_glass
g office_wall02_glass
usemtl wire_086086086
s off
f 1/1/1 2/2/2 3/3/3 4/4/4 
f 5/1/5 6/2/6 7/3/3 8/4/7 
f 9/1/1 10/2/6 11/3/3 12/4/4 
f 13/1/8 14/2/6 15/3/9 16/4/4 
f 17/1/5 18/2/6 19/3/10 20/4/11 
f 21/1/5 22/2/2 23/3/10 24/4/11 
f 25/4/12 26/1/13 27/2/14 28/3/15 
f 29/4/16 30/1/17 31/2/14 32/3/18 
f 33/4/12 34/1/13 35/2/14 36/3/18 
f 37/4/19 38/1/13 39/2/20 40/3/18 
f 41/4/16 42/1/21 43/2/22 44/3/18 
f 45/4/16 46/1/21 47/2/22 48/3/15 
f 49/1/8 50/2/2 51/3/3 52/4/4 
f 53/4/12 54/1/13 55/2/14 56/3/15 
# 14 polygons

#
# object office_wall01_glass
#

v  273.6180 13.4965 -36.0642
v  273.6105 4.7420 -36.0642
v  273.6252 4.7411 -31.1159
v  273.6252 13.4965 -31.1159
v  273.6180 13.4965 -30.6706
v  273.6105 4.7420 -30.6706
v  273.6252 4.7411 -25.7224
v  273.6252 13.4965 -25.7224
v  273.6180 13.4965 -25.2771
v  273.6105 4.7420 -25.2771
v  273.6252 4.7411 -20.3289
v  273.6252 13.4965 -20.3289
v  273.6180 13.4965 -19.8836
v  273.6105 4.7420 -19.8836
v  273.6252 4.7411 -14.9354
v  273.6252 13.4965 -14.9354
v  273.6123 13.4965 -41.4604
v  273.5793 4.7420 -41.4604
v  273.6436 4.7411 -36.5121
v  273.6436 13.4965 -36.5121
v  273.6123 13.5248 -47.6028
v  273.5793 10.8011 -47.6028
v  273.6437 10.8008 -42.1613
v  273.6436 13.5248 -42.1613
v  273.7647 13.4965 -36.0642
v  273.7718 13.4965 -31.1159
v  273.7718 4.7411 -31.1159
v  273.7571 4.7420 -36.0642
v  273.7647 13.4965 -30.6706
v  273.7718 13.4965 -25.7224
v  273.7718 4.7411 -25.7224
v  273.7571 4.7420 -30.6706
v  273.7647 13.4965 -25.2771
v  273.7719 13.4965 -20.3289
v  273.7719 4.7411 -20.3289
v  273.7572 4.7420 -25.2771
v  273.7647 13.4965 -19.8836
v  273.7719 13.4965 -14.9354
v  273.7719 4.7411 -14.9354
v  273.7572 4.7420 -19.8836
v  273.7589 13.4965 -41.4604
v  273.7902 13.4965 -36.5121
v  273.7903 4.7411 -36.5121
v  273.7260 4.7420 -41.4604
v  273.7589 13.5248 -47.6027
v  273.7902 13.5248 -42.1613
v  273.7903 10.8008 -42.1613
v  273.7260 10.8011 -47.6027
# 48 vertices

vn -1.0000 0.0004 0.0000
vn -1.0000 -0.0000 0.0000
vn -1.0000 0.0016 0.0001
vn -1.0000 0.0016 0.0002
vn -1.0000 -0.0000 0.0002
vn -1.0000 -0.0000 0.0001
vn -1.0000 0.0052 0.0001
vn -1.0000 0.0052 0.0002
vn 1.0000 -0.0004 -0.0000
vn 1.0000 0.0000 -0.0000
vn 1.0000 -0.0016 -0.0001
vn 1.0000 0.0000 -0.0001
vn 1.0000 0.0000 -0.0002
vn 1.0000 -0.0016 -0.0002
vn 1.0000 -0.0052 -0.0001
vn 1.0000 -0.0052 -0.0002
# 16 vertex normals

vt 0.0098 0.9889 0.0000
vt 0.0098 0.0082 0.0000
vt 0.9905 0.0082 0.0000
vt 0.9905 0.9889 0.0000
# 4 texture coords

o office_wall01_glass
g office_wall01_glass
usemtl wire_086086086
s off
f 57/5/23 58/6/23 59/7/24 60/8/24 
f 61/5/23 62/6/23 63/7/24 64/8/24 
f 65/5/23 66/6/23 67/7/24 68/8/24 
f 69/5/23 70/6/23 71/7/24 72/8/24 
f 73/5/25 74/6/26 75/7/27 76/8/28 
f 77/5/29 78/6/30 79/7/27 80/8/28 
f 81/8/31 82/5/32 83/6/32 84/7/31 
f 85/8/31 86/5/32 87/6/32 88/7/31 
f 89/8/31 90/5/32 91/6/32 92/7/31 
f 93/8/31 94/5/32 95/6/32 96/7/31 
f 97/8/33 98/5/34 99/6/35 100/7/36 
f 101/8/37 102/5/34 103/6/35 104/7/38 
# 12 polygons

#
# object wall_deco_glass
#

v  310.1476 7.7217 -48.3654
v  310.1476 12.7386 -48.3654
v  300.5818 12.7386 -48.3654
v  300.5818 7.7217 -48.3654
v  300.5818 7.7217 -48.4877
v  300.5818 12.7386 -48.4877
v  310.1476 12.7386 -48.4877
v  310.1476 7.7217 -48.4877
v  295.4536 7.7217 -48.3654
v  295.4536 12.7386 -48.3654
v  291.4489 12.7386 -48.3654
v  291.4489 7.7217 -48.3654
v  291.4489 7.7217 -48.4877
v  291.4489 12.7386 -48.4877
v  295.4536 12.7386 -48.4877
v  295.4536 7.7217 -48.4877
v  286.2150 7.7217 -48.3654
v  286.2150 12.7386 -48.3654
v  282.2104 12.7386 -48.3654
v  282.2104 7.7217 -48.3654
v  282.2104 7.7217 -48.4877
v  282.2104 12.7386 -48.4877
v  286.2150 12.7386 -48.4877
v  286.2150 7.7217 -48.4877
v  280.7768 7.7217 -48.3654
v  280.7768 12.7386 -48.3654
v  276.7722 12.7386 -48.3654
v  276.7722 7.7217 -48.3654
v  276.7722 7.7217 -48.4877
v  276.7722 12.7386 -48.4877
v  280.7768 12.7386 -48.4877
v  280.7768 7.7217 -48.4877
# 32 vertices

vn 0.5773 -0.5774 0.5774
vn 0.5773 0.5774 0.5774
vn -0.5774 0.5773 0.5773
vn -0.5774 -0.5773 0.5773
vn -0.5774 -0.5773 -0.5773
vn -0.5774 0.5773 -0.5773
vn 0.5773 0.5774 -0.5774
vn 0.5773 -0.5774 -0.5774
# 8 vertex normals

vt 0.9905 0.0082 0.0000
vt 0.9905 0.9889 0.0000
vt 0.0098 0.9889 0.0000
vt 0.0098 0.0082 0.0000
# 4 texture coords

o wall_deco_glass
g wall_deco_glass
usemtl wire_086086086
s 8
f 105/9/39 106/10/40 107/11/41 108/12/42 
f 109/9/43 110/10/44 111/11/45 112/12/46 
s off
f 112/9/46 111/10/45 106/11/40 105/12/39 
f 111/12/45 110/9/44 107/10/41 106/11/40 
f 110/11/44 109/12/43 108/9/42 107/10/41 
f 109/12/43 112/9/46 105/10/39 108/11/42 
s 8
f 113/9/39 114/10/40 115/11/41 116/12/42 
f 117/9/43 118/10/44 119/11/45 120/12/46 
s off
f 120/9/46 119/10/45 114/11/40 113/12/39 
f 119/11/45 118/12/44 115/9/41 114/10/40 
f 118/11/44 117/12/43 116/9/42 115/10/41 
f 117/9/43 120/10/46 113/11/39 116/12/42 
s 8
f 121/9/39 122/10/40 123/11/41 124/12/42 
f 125/9/43 126/10/44 127/11/45 128/12/46 
s off
f 128/9/46 127/10/45 122/11/40 121/12/39 
f 127/11/45 126/12/44 123/9/41 122/10/40 
f 126/11/44 125/12/43 124/9/42 123/10/41 
f 125/9/43 128/10/46 121/11/39 124/12/42 
s 8
f 129/9/39 130/10/40 131/11/41 132/12/42 
f 133/9/43 134/10/44 135/11/45 136/12/46 
s off
f 136/9/46 135/10/45 130/11/40 129/12/39 
f 135/11/45 134/12/44 131/9/41 130/10/40 
f 134/11/44 133/12/43 132/9/42 131/10/41 
f 133/9/43 136/10/46 129/11/39 132/12/42 
# 24 polygons

#
# object office_door_glass
#

v  268.4065 9.5111 -47.3074
v  273.8099 9.5111 -47.3078
v  273.8099 0.8274 -47.3078
v  268.4065 0.8282 -47.3074
v  268.4065 9.5111 -47.5221
v  268.4065 0.8282 -47.5220
v  273.8099 9.5111 -47.5220
v  273.8099 0.8274 -47.5220
# 8 vertices

vn -0.5756 -0.5770 0.5795
vn 0.5792 -0.5777 0.5752
vn 0.7095 0.0001 0.7047
vn -0.7047 0.0000 0.7095
vn -0.5773 -0.5774 -0.5774
vn -0.7070 -0.0000 -0.7072
vn 0.5774 -0.5773 -0.5773
vn 0.7072 -0.0000 -0.7070
# 8 vertex normals

vt 0.0098 0.9889 0.0000
vt 0.9905 0.9889 0.0000
vt 0.9905 0.0082 0.0000
vt 0.0098 0.0082 0.0000
# 4 texture coords

o office_door_glass
g office_door_glass
usemtl wire_086086086
s off
f 140/16/50 139/15/49 138/14/48 137/13/47 
f 142/16/52 140/15/50 137/14/47 141/13/51 
f 138/14/48 137/15/47 141/16/51 143/13/53 
f 143/13/53 144/16/54 142/15/52 141/14/51 
f 143/16/53 138/15/48 139/14/49 144/13/54 
# 5 polygons

#
# object outer_wall_glass
#

v  253.4975 13.4965 -17.6138
v  253.4975 0.4228 -17.6139
v  253.4975 0.4228 -25.7036
v  253.4975 13.4965 -25.7036
v  253.4975 13.4965 -26.3387
v  253.4975 0.4228 -26.3387
v  253.4975 0.4228 -34.4284
v  253.4975 13.4965 -34.4284
v  253.4975 13.4965 -35.0518
v  253.4975 0.4228 -35.0518
v  253.4975 0.4228 -43.1416
v  253.4975 13.4965 -43.1416
v  253.4975 13.4965 -8.9025
v  253.4975 0.4228 -8.9025
v  253.4975 0.4228 -16.9923
v  253.4975 13.4965 -16.9923
v  253.4975 13.4965 -0.1900
v  253.4975 0.4228 -0.1900
v  253.4975 0.4228 -8.2798
v  253.4975 13.4965 -8.2797
v  253.2282 13.4965 -17.6138
v  253.2282 13.4965 -25.7036
v  253.2282 0.4228 -25.7036
v  253.2282 0.4228 -17.6139
v  253.2282 13.4965 -26.3387
v  253.2282 13.4965 -34.4284
v  253.2282 0.4228 -34.4284
v  253.2282 0.4228 -26.3387
v  253.2282 13.4965 -35.0518
v  253.2282 13.4965 -43.1416
v  253.2282 0.4228 -43.1416
v  253.2282 0.4228 -35.0518
v  253.2282 13.4965 -8.9025
v  253.2282 13.4965 -16.9923
v  253.2282 0.4228 -16.9923
v  253.2282 0.4228 -8.9025
v  253.2282 13.4965 -0.1900
v  253.2282 13.4965 -8.2797
v  253.2282 0.4228 -8.2798
v  253.2282 0.4228 -0.1900
# 40 vertices

vn 1.0000 0.0000 0.0000
vn 1.0000 -0.0000 0.0000
vn -1.0000 -0.0000 -0.0000
vn -1.0000 0.0000 -0.0000
# 4 vertex normals

vt 0.0098 0.9889 0.0000
vt 0.0098 0.0082 0.0000
vt 0.9905 0.0082 0.0000
vt 0.9905 0.9889 0.0000
# 4 texture coords

o outer_wall_glass
g outer_wall_glass
usemtl wire_086086086
s 1
f 145/17/55 146/18/55 147/19/55 148/20/56 
f 149/17/56 150/18/56 151/19/56 152/20/56 
f 153/17/55 154/18/56 155/19/55 156/20/55 
f 157/17/55 158/18/55 159/19/55 160/20/55 
f 161/17/55 162/18/55 163/19/55 164/20/55 
f 165/20/57 166/17/58 167/18/58 168/19/57 
f 169/20/58 170/17/58 171/18/58 172/19/58 
f 173/20/58 174/17/57 175/18/57 176/19/58 
f 177/20/57 178/17/57 179/18/57 180/19/57 
f 181/20/57 182/17/58 183/18/58 184/19/57 
# 10 polygons

#
# object showcase_glass
#

v  259.8046 8.5218 -14.2246
v  263.1666 8.5218 -14.2246
v  263.1666 8.5218 -17.5865
v  259.8046 8.5218 -17.5865
v  259.8046 3.4385 -14.2246
v  263.1666 3.4385 -14.2246
v  263.1666 3.4385 -17.5865
v  259.8046 3.4385 -17.5865
v  259.8822 8.4228 -14.3021
v  259.8822 8.4228 -17.5090
v  263.0890 8.4228 -17.5090
v  263.0891 8.4228 -14.3021
v  259.8822 3.4360 -14.3021
v  263.0891 3.4360 -14.3021
v  263.0890 3.4360 -17.5090
v  259.8822 3.4360 -17.5090
v  259.8046 8.5218 -22.3891
v  263.1666 8.5218 -22.3892
v  263.1666 8.5218 -25.7511
v  259.8046 8.5218 -25.7511
v  259.8046 3.4385 -22.3891
v  263.1666 3.4385 -22.3892
v  263.1666 3.4385 -25.7511
v  259.8046 3.4385 -25.7511
v  259.8822 8.4228 -22.4667
v  259.8822 8.4228 -25.6735
v  263.0891 8.4228 -25.6735
v  263.0891 8.4228 -22.4667
v  259.8822 3.4360 -22.4667
v  263.0891 3.4360 -22.4667
v  263.0891 3.4360 -25.6735
v  259.8822 3.4360 -25.6735
v  259.8046 8.5218 -30.3031
v  263.1666 8.5218 -30.3031
v  263.1666 8.5218 -33.6650
v  259.8046 8.5218 -33.6650
v  259.8046 3.4385 -30.3031
v  263.1666 3.4385 -30.3031
v  263.1666 3.4385 -33.6650
v  259.8046 3.4385 -33.6650
v  259.8822 8.4228 -30.3807
v  259.8822 8.4228 -33.5875
v  263.0891 8.4228 -33.5875
v  263.0891 8.4228 -30.3807
v  259.8822 3.4360 -30.3807
v  263.0891 3.4360 -30.3807
v  263.0891 3.4360 -33.5875
v  259.8822 3.4360 -33.5875
# 48 vertices

vn -0.5773 0.5774 0.5774
vn 0.5774 0.5773 0.5773
vn 0.5774 0.5774 -0.5774
vn -0.5774 0.5774 -0.5774
vn -0.7071 0.0000 0.7072
vn 0.7072 0.0000 0.7071
vn 0.7071 0.0000 -0.7071
vn -0.7071 0.0000 -0.7071
vn 0.5773 -0.5774 -0.5774
vn 0.5773 -0.5774 0.5774
vn -0.5774 -0.5773 0.5773
vn -0.5774 -0.5773 -0.5773
vn 0.7071 0.0000 -0.7072
vn -0.7072 0.0000 -0.7071
vn -0.7071 0.0000 0.7071
vn 0.7071 0.0000 0.7071
# 16 vertex normals

vt 0.0098 0.0082 0.0000
vt 0.9905 0.0082 0.0000
vt 0.9905 0.9889 0.0000
vt 0.0098 0.9889 0.0000
# 4 texture coords

o showcase_glass
g showcase_glass
usemtl wire_086086086
s 4
f 185/21/59 186/22/60 187/23/61 188/24/62 
s off
f 189/21/63 190/22/64 186/23/60 185/24/59 
f 190/21/64 191/22/65 187/23/61 186/24/60 
f 191/21/65 192/22/66 188/23/62 187/24/61 
f 192/21/66 189/22/63 185/23/59 188/24/62 
s 4
f 193/21/67 194/24/68 195/23/69 196/22/70 
s off
f 197/23/71 193/24/67 196/21/70 198/22/72 
f 198/22/72 196/23/70 195/24/69 199/21/73 
f 199/23/73 195/24/69 194/21/68 200/22/74 
f 200/22/74 194/23/68 193/24/67 197/21/71 
s 4
f 201/21/59 202/22/60 203/23/61 204/24/62 
s off
f 205/21/63 206/22/64 202/23/60 201/24/59 
f 206/21/64 207/22/65 203/23/61 202/24/60 
f 207/21/65 208/22/66 204/23/62 203/24/61 
f 208/21/66 205/22/63 201/23/59 204/24/62 
s 4
f 209/21/67 210/24/68 211/23/69 212/22/70 
s off
f 213/23/71 209/24/67 212/21/70 214/22/72 
f 214/22/72 212/23/70 211/24/69 215/21/73 
f 215/23/73 211/24/69 210/21/68 216/22/74 
f 216/22/74 210/23/68 209/24/67 213/21/71 
s 4
f 217/21/59 218/22/60 219/23/61 220/24/62 
s off
f 221/21/63 222/22/64 218/23/60 217/24/59 
f 222/21/64 223/22/65 219/23/61 218/24/60 
f 223/21/65 224/22/66 220/23/62 219/24/61 
f 224/21/66 221/22/63 217/23/59 220/24/62 
s 4
f 225/21/67 226/24/68 227/23/69 228/22/70 
s off
f 229/23/71 225/24/67 228/21/70 230/22/72 
f 230/22/72 228/23/70 227/24/69 231/21/73 
f 231/23/73 227/24/69 226/21/68 232/22/74 
f 232/22/74 226/23/68 225/24/67 229/21/71 
# 30 polygons

