# 3ds Max Wavefront OBJ Exporter v0.99 - (c)2007 guruware
# File Created: 28.05.2023 17:54:01

mtllib flower_pot.mtl

#
# object flower_pot
#

v  28.5424 1.0014 26.3734
v  28.5424 1.0014 23.7058
v  31.0048 1.0014 23.7058
v  31.0048 1.0014 26.3734
v  28.6980 1.5770 26.2048
v  30.8492 1.5770 26.2048
v  30.8492 1.5770 23.8745
v  28.6980 1.5770 23.8745
v  31.2312 3.1573 26.6186
v  28.3160 3.1573 26.6186
v  31.2312 3.1573 23.4606
v  28.3160 3.1573 23.4606
v  30.9948 3.1573 26.3626
v  28.5523 3.1573 26.3626
v  30.9948 3.1573 23.7166
v  28.5523 3.1573 23.7166
# 16 vertices

vn 0.0000 -1.0000 -0.0000
vn 0.0000 1.0000 -0.0000
vn 0.0000 -0.1252 0.9921
vn 0.9945 -0.1044 -0.0000
vn 0.0000 -0.1252 -0.9921
vn -0.9945 -0.1044 -0.0000
vn 0.0000 0.1102 -0.9939
vn -0.9958 0.0918 -0.0000
vn 0.0000 0.1102 0.9939
vn 0.9958 0.0918 -0.0000
# 10 vertex normals

vt 0.2327 0.7002 0.0000
vt 0.2327 0.3860 0.0000
vt 0.4940 0.3860 0.0000
vt 0.4940 0.7002 0.0000
vt 0.0315 0.0377 0.0000
vt 0.2598 0.0377 0.0000
vt 0.2598 0.3122 0.0000
vt 0.0315 0.3122 0.0000
vt 0.9863 0.6375 0.0000
vt 0.9863 0.8989 0.0000
vt 0.7575 0.9229 0.0000
vt 0.7575 0.6135 0.0000
vt 0.5405 0.0294 0.0000
vt 0.5405 0.3436 0.0000
vt 0.3117 0.3725 0.0000
vt 0.3117 0.0005 0.0000
vt 0.7575 0.6109 0.0000
vt 0.7575 0.3496 0.0000
vt 0.9863 0.3256 0.0000
vt 0.9863 0.6350 0.0000
vt 0.2293 0.4055 0.0000
vt 0.2293 0.7198 0.0000
vt 0.0005 0.7486 0.0000
vt 0.0005 0.3767 0.0000
vt 0.0005 0.0005 0.0000
vt 0.3099 0.0005 0.0000
vt 0.2848 0.0307 0.0000
vt 0.0256 0.0307 0.0000
vt 0.3099 0.3725 0.0000
vt 0.2848 0.3423 0.0000
vt 0.0005 0.3725 0.0000
vt 0.0256 0.3423 0.0000
vt 0.7441 0.3395 0.0000
vt 0.7441 0.5987 0.0000
vt 0.5764 0.5833 0.0000
vt 0.5764 0.3550 0.0000
vt 0.3168 0.9809 0.0000
vt 0.0051 0.9809 0.0000
vt 0.0237 0.8132 0.0000
vt 0.2982 0.8132 0.0000
vt 0.5764 0.8449 0.0000
vt 0.5764 0.5856 0.0000
vt 0.7441 0.6011 0.0000
vt 0.7441 0.8294 0.0000
vt 0.8318 0.3122 0.0000
vt 0.8318 0.0005 0.0000
vt 0.9995 0.0191 0.0000
vt 0.9995 0.2936 0.0000
# 48 texture coords

o flower_pot
g flower_pot
usemtl wire_255255255
s 2
f 1/1/1 2/2/1 3/3/1 
f 3/3/1 4/4/1 1/1/1 
s 4
f 5/5/2 6/6/2 7/7/2 
f 7/7/2 8/8/2 5/5/2 
s 8
f 1/9/3 4/10/3 9/11/3 
f 9/11/3 10/12/3 1/9/3 
s 16
f 4/13/4 3/14/4 11/15/4 
f 11/15/4 9/16/4 4/13/4 
s 32
f 3/17/5 2/18/5 12/19/5 
f 12/19/5 11/20/5 3/17/5 
s 64
f 2/21/6 1/22/6 10/23/6 
f 10/23/6 12/24/6 2/21/6 
s off
f 10/25/2 9/26/2 13/27/2 
f 13/27/2 14/28/2 10/25/2 
f 9/26/2 11/29/2 15/30/2 
f 15/30/2 13/27/2 9/26/2 
f 11/29/2 12/31/2 16/32/2 
f 16/32/2 15/30/2 11/29/2 
f 12/31/2 10/25/2 14/28/2 
f 14/28/2 16/32/2 12/31/2 
f 14/33/7 13/34/7 6/35/7 
f 6/35/7 5/36/7 14/33/7 
f 13/37/8 15/38/8 7/39/8 
f 7/39/8 6/40/8 13/37/8 
f 15/41/9 16/42/9 8/43/9 
f 8/43/9 7/44/9 15/41/9 
f 16/45/10 14/46/10 5/47/10 
f 5/47/10 8/48/10 16/45/10 
# 28 faces

#
# object flower_pot_grass
#

v  28.3436 2.9775 26.4370
v  31.0383 2.9775 26.4370
v  31.0383 2.9775 23.5710
v  28.3436 2.9775 23.5710
# 4 vertices

vn 0.0000 1.0000 -0.0000
# 1 vertex normals

vt 0.5439 0.0005 0.0000
vt 0.8298 0.0005 0.0000
vt 0.8298 0.3381 0.0000
vt 0.5439 0.3381 0.0000
# 4 texture coords

o flower_pot_grass
g flower_pot_grass
usemtl wire_255255255
s 1
f 17/49/11 18/50/11 19/51/11 
f 19/51/11 20/52/11 17/49/11 
# 2 faces

