# 3ds Max Wavefront OBJ Exporter v0.99 - (c)2007 guruware
# File Created: 29.05.2023 02:38:26

mtllib obj-ServerProp12.mtl

#
# object 012
#

v  -0.6283 -0.6283 0.0000
v  0.0000 -0.6283 0.0000
v  0.0000 -0.6283 0.6567
v  -0.6283 -0.6283 0.6567
v  0.0000 0.6283 0.6567
v  0.0000 0.6283 -0.0000
v  -0.6283 0.6283 -0.0000
v  -0.6283 0.6283 0.6567
v  0.0000 -0.0000 0.6567
v  -0.6283 -0.0000 0.6567
v  0.6283 -0.6283 0.0000
v  0.6283 0.0000 -0.0000
v  0.6283 -0.0000 0.6567
v  0.6283 -0.6283 0.6567
v  0.0000 -0.6283 -0.6567
v  0.0000 0.0000 -0.6567
v  0.6283 0.0000 -0.6567
v  0.6283 -0.6283 -0.6567
v  -0.6283 0.0000 -0.0000
v  -0.6283 0.0000 -0.6567
v  -0.6283 -0.6283 -0.6567
v  0.6283 0.6283 0.6567
v  0.6283 0.6283 -0.6567
v  0.6283 0.6283 -0.0000
v  -0.6283 0.6283 -0.6567
v  0.0000 0.6283 -0.6567
# 26 vertices

vn -0.0000 -1.0000 0.0000
vn 0.0000 -1.0000 0.0000
vn -0.0000 1.0000 0.0000
vn 0.0000 1.0000 0.0000
vn 0.0000 0.0000 1.0000
vn 1.0000 0.0000 0.0000
vn 1.0000 -0.0000 -0.0000
vn -0.0000 -0.0000 -1.0000
vn 0.0000 -0.0000 -1.0000
vn -1.0000 0.0000 0.0000
vn -1.0000 -0.0000 -0.0000
vn -0.0000 0.0000 1.0000
vn 1.0000 0.0000 -0.0000
vn 0.0000 -1.0000 -0.0000
vn -1.0000 0.0000 -0.0000
# 15 vertex normals

vt 0.6093 0.7932 0.0000
vt 0.6093 0.7195 0.0000
vt 0.6829 0.7195 0.0000
vt 0.6829 0.7932 0.0000
# 4 texture coords

o 012
g 012
usemtl wire_086086086
s 2
f 1/1/1 2/2/2 3/3/2 
f 3/3/2 4/4/1 1/1/1 
s 4
f 5/1/3 6/2/3 7/3/4 
f 7/3/4 8/4/4 5/1/3 
s 8
f 3/1/5 9/2/5 10/3/5 
f 10/3/5 4/4/5 3/1/5 
s 16
f 11/1/6 12/2/7 13/3/6 
f 13/3/6 14/4/6 11/1/6 
s 32
f 15/1/8 16/2/8 17/3/8 
f 17/3/8 18/4/9 15/1/8 
s 64
f 1/1/10 19/2/10 20/3/11 
f 20/3/11 21/4/11 1/1/10 
s 8
f 22/4/12 5/1/5 9/2/5 
f 9/2/5 13/3/12 22/4/12 
s 16
f 23/4/13 24/1/6 12/2/7 
f 12/2/7 17/3/7 23/4/13 
s 32
f 25/4/8 26/1/9 16/2/8 
f 16/2/8 20/3/9 25/4/8 
s 64
f 8/4/10 7/1/10 19/2/10 
f 19/2/10 10/3/10 8/4/10 
s 2
f 18/4/14 11/1/2 2/2/2 
f 2/2/2 15/3/14 18/4/14 
s 4
f 22/4/3 24/1/3 6/2/3 
f 6/2/3 5/3/3 22/4/3 
s 8
f 14/4/12 13/1/12 9/2/5 
f 9/2/5 3/3/5 14/4/12 
s 32
f 21/4/9 20/1/9 16/2/8 
f 16/2/8 15/3/8 21/4/9 
s 8
f 8/4/5 10/1/5 9/2/5 
f 9/2/5 5/3/5 8/4/5 
s 32
f 23/4/9 17/1/8 16/2/8 
f 16/2/8 26/3/9 23/4/9 
s 2
f 21/4/14 15/1/14 2/2/2 
f 2/2/2 1/3/1 21/4/14 
s 4
f 26/3/4 25/4/4 7/1/4 
f 7/1/4 6/2/3 26/3/4 
s 16
f 18/4/7 17/1/7 12/2/7 
f 12/2/7 11/3/6 18/4/7 
s 64
f 4/4/10 10/1/10 19/2/10 
f 19/2/10 1/3/10 4/4/10 
s 16
f 22/4/6 13/1/6 12/2/7 
f 12/2/7 24/3/6 22/4/6 
s 64
f 25/4/15 20/1/11 19/2/10 
f 19/2/10 7/3/10 25/4/15 
s 2
f 14/4/2 3/1/2 2/2/2 
f 2/2/2 11/3/2 14/4/2 
s 4
f 23/4/3 26/1/4 6/2/3 
f 6/2/3 24/3/3 23/4/3 
# 48 faces

